<?xml version="1.0" encoding="UTF-8"?>
<svg xmlns="http://www.w3.org/2000/svg" viewBox="0 0 3000 3000">
  <path fill="#ebebeb" d="m967.79,1805.05l-41.91,500.7h-156.01l-58.7,694.25h-226.42l58.7-694.25H0l43.61-552.84L729.63,0h231.47l-149.29,1805.05h155.99Zm-286.82-1153.6h-3.35L236.49,1805.05h348.89l95.59-1153.6Z"/>
  <path fill="#ebebeb" d="m1918.35,258.04c-32.44-99.93-73.24-177.7-122.42-233.39-7.9-8.94-16.01-17.15-24.34-24.65h-293.12c-9.2,8.09-18.25,17-27.14,26.76-52,57.13-98.4,134.97-139.18,233.45-40.81,98.48-76.59,213.4-107.33,344.76-30.74,131.36-55.89,269.81-75.46,415.43-19.57,145.62-34.39,294.07-44.44,445.41-10.07,151.34-15.09,298.34-15.09,441.07,0,154.23,6.69,300.58,20.11,439.03,13.41,138.46,34.65,260.54,63.72,366.19,29.07,105.65,67.35,189.14,114.87,250.55,10.9,14.07,22.31,26.5,34.24,37.34h283.94c11.29-9.18,22.34-19.48,33.14-30.97,53.65-57.07,101.74-134.18,144.22-231.28,42.48-97.04,79.63-211.23,111.5-342.59,31.87-131.36,58.13-269.81,78.83-415.43,20.67-145.62,36.04-296.24,46.11-451.85,10.04-155.55,15.09-306.17,15.09-451.85,0-168.43-8.11-321.88-24.33-460.33-16.22-138.46-40.52-257.71-72.93-357.64Zm-147.49,982.8c-3.91,104.27-10.58,214.91-20.05,332-9.47,117.15-22.01,234.24-37.61,351.33s-34.52,222.74-56.82,317.01c-22.29,94.28-48.73,170.67-79.37,229.18-30.64,58.58-66.01,87.83-106.12,87.83-32.31,0-59.06-14.27-80.22-42.8-21.16-28.53-37.87-66.4-50.12-113.54-12.25-47.14-20.9-102.82-25.9-167.12-5.02-64.23-7.52-132.08-7.52-203.48s1.93-159.95,5.84-265.67c3.89-105.65,10.3-217.02,19.21-334.11,8.91-117.09,20.9-234.9,35.94-353.44,15.03-118.54,33.7-224.91,55.99-319.18,22.27-94.28,48.45-170.67,78.52-229.25,30.07-58.51,64.62-87.83,103.62-87.83,30.07,0,55.97,14.33,77.7,42.86s39.54,67.12,53.47,115.64c13.93,48.58,23.97,105.72,30.1,171.39,6.13,65.74,9.19,135.69,9.19,209.92,0,68.57-1.96,154.96-5.84,259.23Z"/>
  <path fill="#ebebeb" d="m3000,1805.05l-41.91,500.7h-156.01l-58.7,694.25h-226.42l58.7-694.25h-543.44l43.61-552.84L2761.84,0h231.47l-149.29,1805.05h155.99Zm-286.82-1153.6h-3.35l-441.13,1153.6h348.89l95.59-1153.6Z"/>
</svg>